<?xml version="1.0" encoding="utf-8"?>
<!-- Generator: Adobe Illustrator 21.0.0, SVG Export Plug-In . SVG Version: 6.00 Build 0)  -->
<svg version="1.1" id="content" xmlns="http://www.w3.org/2000/svg" xmlns:xlink="http://www.w3.org/1999/xlink" x="0px" y="0px"
	 viewBox="0 0 479 367.8" style="enable-background:new 0 0 479 367.8;" xml:space="preserve">
<style type="text/css">
	.st0{fill:#757575;}
	.st1{fill:none;}
	.st2{clip-path:url(#SVGID_2_);}
	.st3{fill:#455A64;}
	.st4{fill:url(#SVGID_3_);}
	.st5{opacity:0.2;fill:#263238;enable-background:new    ;}
	.st6{clip-path:url(#SVGID_5_);}
	.st7{fill:#DB4437;}
	.st8{opacity:0.2;fill:#FFFFFF;enable-background:new    ;}
	.st9{opacity:0.2;fill:#3E2723;enable-background:new    ;}
	.st10{fill:url(#SVGID_6_);fill-opacity:0.1;}
</style>
<symbol  id="logo_x5F_dark" viewBox="-207.4 -67.7 414.8 135.3">
	<path class="st0" d="M-207.4,15.1c0,29,24.3,52.5,53.3,52.5c16,0,27.4-6.3,36-14.5l-10.2-10.1c-6.1,5.8-14.4,10.3-25.8,10.3
		c-21.1,0-37.6-17-37.6-38.1s16.5-38.1,37.6-38.1c13.7,0,21.5,5.5,26.5,10.5c4.1,4.1,6.8,10,7.8,18h-34.3V20h48.3
		c0.5-2.6,0.8-5.6,0.8-9c0-10.8-2.9-24.1-12.4-33.5c-9.3-9.6-21.1-14.7-36.7-14.7C-183.1-37.2-207.4-13.8-207.4,15.1z"/>
	<path class="st0" d="M-66.1,30.2C-84.8,30.2-100,16-100-3.5c0-19.5,15.2-33.8,33.9-33.8S-32.2-23-32.2-3.5
		C-32.2,16-47.4,30.2-66.1,30.2z M-66.1-24c-10.2,0-19.1,8.4-19.1,20.5c0,12.2,8.8,20.5,19.1,20.5C-55.9,17-47,8.7-47-3.5
		C-47-15.6-55.9-24-66.1-24z"/>
	<path class="st0" d="M7.9,30.2C-10.8,30.2-26,16-26-3.5C-26-23-10.8-37.3,7.9-37.3S41.8-23,41.8-3.5C41.8,16,26.6,30.2,7.9,30.2z
		 M7.9-24c-10.2,0-19.1,8.4-19.1,20.5C-11.2,8.8-2.4,17,7.9,17S27,8.8,27-3.5C27-15.6,18.1-24,7.9-24z"/>
	<path class="st0" d="M98.7,28.2v-5.5h-0.5c-3.3,4-9.7,7.6-17.8,7.6C63.5,30.4,48,15.6,48-3.6c0-18.9,15.5-33.7,32.4-33.7
		c8.1,0,14.5,3.6,17.8,7.7h0.5v-4.9c0-12.9-6.9-19.8-18-19.8c-9.1,0-14.7,6.5-17,12l-12.9-5.4c3.7-9,13.6-20,30-20
		c17.4,0,32.1,10.2,32.1,35.2v60.7H98.7z M81.7-24c-10.2,0-18.8,8.6-18.8,20.4c0,11.9,8.6,20.6,18.8,20.6c10.1,0,18-8.7,18-20.6
		C99.8-15.4,91.8-24,81.7-24z"/>
	<rect x="123.1" y="-35.2" class="st0" width="14.8" height="99.3"/>
	<path class="st0" d="M178.6-24c-7.6,0-12.9,3.5-16.4,10.2l45.2,18.7l-1.5,3.8c-2.8,7.6-11.4,21.5-28.9,21.5
		c-17.4,0-31.9-13.7-31.9-33.8c0-18.9,14.3-33.8,33.5-33.8c15.5,0,24.4,9.5,28.2,15l-11.5,7.7C191.4-20.2,186.2-24,178.6-24z
		 M177.5,17.2c5.9,0,10.9-2.9,12.5-7.2L159.8-2.5C159.4,10.6,169.9,17.2,177.5,17.2z"/>
</symbol>
<g>
	<g id="XMLID_6_">
		<rect id="XMLID_60_" x="66.3" y="282.5" class="st1" width="346.4" height="46.4"/>
		<g>
			<g>
				<rect x="66.3" y="282.5" class="st1" width="346.4" height="46.4"/>
				<g>
					<path class="st0" d="M78.6,286.4h4.5L95,317.6h-4.5l-3-8.5H74.3l-3.1,8.5h-4.5L78.6,286.4z M86.1,305.4L81,291.3h-0.2
						l-5.1,14.1H86.1z"/>
					<path class="st0" d="M95.4,306.9c0-6.6,4.8-11.4,10.2-11.4c3.4,0,6.1,1.7,7.3,3.7h0.2l-0.2-3v-9.9h4v31.3H113v-3h-0.2
						c-1.2,2-3.9,3.7-7.3,3.7C100.1,318.3,95.4,313.5,95.4,306.9z M113,306.9c0-4.9-3.2-7.7-6.8-7.7s-6.8,2.9-6.8,7.7
						c0,4.8,3.2,7.7,6.8,7.7S113,311.8,113,306.9z"/>
					<path class="st0" d="M122.5,286.4h4l10.9,19h0.2l10.9-19h4v31.3h-4v-18.6l0.2-5.3h-0.2l-9.8,17.2h-2.4l-9.8-17.2h-0.2l0.2,5.3
						v18.6h-4V286.4z"/>
					<path class="st0" d="M178.8,306.9c0,6.5-4.6,11.4-11,11.4s-11-4.9-11-11.4s4.6-11.4,11-11.4S178.8,300.4,178.8,306.9z
						 M174.8,306.9c0-4.9-3.4-7.7-7-7.7s-7,2.8-7,7.7c0,4.9,3.4,7.7,7,7.7S174.8,311.8,174.8,306.9z"/>
					<path class="st0" d="M186.1,314.7h-0.2v3h-3.9v-31.3h4v9.9l-0.2,3h0.2c1.2-2,3.9-3.7,7.3-3.7c5.4,0,10.2,4.8,10.2,11.4
						c0,6.6-4.8,11.4-10.2,11.4C190,318.3,187.3,316.7,186.1,314.7z M199.5,306.9c0-4.8-3.2-7.7-6.8-7.7s-6.8,2.8-6.8,7.7
						c0,4.9,3.2,7.7,6.8,7.7S199.5,311.7,199.5,306.9z"/>
					<path class="st0" d="M219.2,314.7H219v3h-3.9v-31.3h4v9.9l-0.2,3h0.2c1.2-2,3.9-3.7,7.3-3.7c5.4,0,10.2,4.8,10.2,11.4
						c0,6.6-4.8,11.4-10.2,11.4C223,318.3,220.4,316.7,219.2,314.7z M232.6,306.9c0-4.8-3.2-7.7-6.8-7.7s-6.8,2.8-6.8,7.7
						c0,4.9,3.2,7.7,6.8,7.7S232.6,311.7,232.6,306.9z"/>
					<path class="st0" d="M241.9,327.1l5-10.8l-8.8-20.1h4.4l6.4,15.4h0.1l6.2-15.4h4.4l-13.4,30.9L241.9,327.1L241.9,327.1z"/>
				</g>
			</g>
			
				<use xlink:href="#logo_x5F_dark"  width="414.8" height="135.3" id="XMLID_9_" x="-207.4" y="-67.7" transform="matrix(0.3413 0 0 -0.3413 341.7539 305.618)" style="overflow:visible;"/>
		</g>
	</g>
	<g>
		<rect x="141.2" y="71.9" class="st1" width="196.6" height="180.2"/>
		<g>
			<g>
				<g>
					<defs>
						<path id="SVGID_1_" d="M272.3,71.9h-32.8c-49.8,0-90.1,40.3-90.1,90.1s40.3,90.1,90.1,90.1v-57.3c-18.1,0-32.8-14.7-32.8-32.8
							s14.7-32.8,32.8-32.8h32.8v122.9h57.3V129.3L272.3,71.9z"/>
					</defs>
					<clipPath id="SVGID_2_">
						<use xlink:href="#SVGID_1_"  style="overflow:visible;"/>
					</clipPath>
					<g class="st2">
						<rect x="272.3" y="129.3" class="st3" width="57.3" height="122.9"/>
						
							<linearGradient id="SVGID_3_" gradientUnits="userSpaceOnUse" x1="286.9836" y1="-348.7002" x2="343.8752" y2="-291.8086" gradientTransform="matrix(1 0 0 1 0 464)">
							<stop  offset="0" style="stop-color:#263238;stop-opacity:0.2"/>
							<stop  offset="1" style="stop-color:#263238;stop-opacity:0"/>
						</linearGradient>
						<polygon class="st4" points="329.6,129.3 272.3,129.3 329.6,186.6 						"/>
						<rect x="272.3" y="251.1" class="st5" width="57.3" height="1"/>
						<polyline class="st5" points="272.3,130.3 329.6,130.3 329.6,129.3 272.3,129.3 						"/>
					</g>
				</g>
			</g>
			<g>
				<g>
					<defs>
						<path id="SVGID_4_" d="M272.3,71.9h-32.8c-49.8,0-90.1,40.3-90.1,90.1s40.3,90.1,90.1,90.1v-57.3c-18.1,0-32.8-14.7-32.8-32.8
							s14.7-32.8,32.8-32.8h32.8v122.9h57.3V129.3L272.3,71.9z"/>
					</defs>
					<clipPath id="SVGID_5_">
						<use xlink:href="#SVGID_4_"  style="overflow:visible;"/>
					</clipPath>
					<g class="st6">
						<g>
							
								<image style="overflow:visible;opacity:0.2;enable-background:new    ;" width="552" height="552" xlink:href="41A5DFF6063D48EF.png"  transform="matrix(0.3413 0 0 0.3413 146.666 69.1815)">
							</image>
							<g>
								<path class="st7" d="M272.3,71.9h-32.8c-49.8,0-90.1,40.3-90.1,90.1s40.3,90.1,90.1,90.1v-57.3c-18.1,0-32.8-14.7-32.8-32.8
									s14.7-32.8,32.8-32.8h32.8h57.3L272.3,71.9z"/>
							</g>
						</g>
						<path class="st8" d="M239.5,195.8v-1c-17.9,0-32.5-14.4-32.8-32.3c0,0.2,0,0.3,0,0.5C206.7,181.1,221.4,195.8,239.5,195.8z"/>
						<path class="st8" d="M272.3,71.9h-32.8c-49.8,0-90.1,40.3-90.1,90.1c0,0.2,0,0.3,0,0.5c0.3-49.5,40.5-89.6,90.1-89.6h32.8
							l56.3,56.3l1,0L272.3,71.9z"/>
						<path class="st9" d="M239.5,252.1v-1c-49.6,0-89.8-40.1-90.1-89.6c0,0.2,0,0.3,0,0.5C149.4,211.8,189.7,252.1,239.5,252.1z"/>
						<path class="st9" d="M272.3,128.2h-32.8c-18.1,0-32.8,14.7-32.8,32.8c0,0.2,0,0.3,0,0.5c0.3-17.9,14.8-32.3,32.8-32.3h32.8
							h57.3l-1-1H272.3z"/>
					</g>
				</g>
			</g>
		</g>
		
			<radialGradient id="SVGID_6_" cx="176.2739" cy="-361.371" r="213.4192" gradientTransform="matrix(1 0 0 1 0 464)" gradientUnits="userSpaceOnUse">
			<stop  offset="0" style="stop-color:#FFFFFF"/>
			<stop  offset="1" style="stop-color:#FFFFFF;stop-opacity:0"/>
		</radialGradient>
		<path class="st10" d="M272.3,71.9h-32.8c-49.8,0-90.1,40.3-90.1,90.1s40.3,90.1,90.1,90.1v-57.3c-18.1,0-32.8-14.7-32.8-32.8
			s14.7-32.8,32.8-32.8h32.8v122.9h57.3V129.3L272.3,71.9z"/>
	</g>
</g>
</svg>
